<svg xmlns="http://www.w3.org/2000/svg" width="64px" height="64px" viewBox="2 5 100 100">
<path fill="#343534" d="M8.918,80.053l31.362-25.99l0.837,0.551c2.49,1.656,5.686,2.48,8.882,2.48c3.195,0,6.392-0.824,8.882-2.48l0.837-0.551  l31.363,25.99H8.918z M56.118,50.448L95,24.656c0,0,0-1.054,0-2.354c0-1.301-1.343-2.355-3-2.355H8c-1.657,0-3,1.054-3,2.354v2.354  l38.882,25.793C47.141,52.611,52.859,52.611,56.118,50.448z M95,30.657L64.072,51.172L95,76.807V30.657z M35.928,51.172L5,30.656  v46.151L35.928,51.172z"/>
</svg>